<svg xmlns="http://www.w3.org/2000/svg" width="108.828" height="28.861" viewBox="0 0 108.828 28.861">
  <g id="组_36" data-name="组 36" transform="translate(-104.428 -149.723)">
    <g id="组_29" data-name="组 29" transform="translate(104.428 149.723)">
      <g id="组_27" data-name="组 27" transform="translate(0 1.111)">
        <path id="路径_22" data-name="路径 22" d="M132.179,195.6a.284.284,0,0,0-.281-.286.278.278,0,0,0-.213.093,14.636,14.636,0,0,1-21.453-.109.273.273,0,0,0-.212-.1.285.285,0,0,0-.284.286.276.276,0,0,0,.069.184h0a13.912,13.912,0,0,0,22.3.117h0A.292.292,0,0,0,132.179,195.6Z" transform="translate(-107.082 -173.572)" fill="#b7b7b7" fill-rule="evenodd"/>
        <path id="路径_23" data-name="路径 23" d="M135.137,152.012a.283.283,0,0,0-.106.385.293.293,0,0,0,.19.141,14.633,14.633,0,0,1,10.63,18.629.283.283,0,0,0,.409.34.3.3,0,0,0,.126-.154h0a13.91,13.91,0,0,0-11.05-19.371h0A.271.271,0,0,0,135.137,152.012Z" transform="translate(-119.711 -151.96)" fill="#b7b7b7" fill-rule="evenodd"/>
        <path id="路径_24" data-name="路径 24" d="M105.658,171.358a.282.282,0,0,0,.412-.332,14.633,14.633,0,0,1,10.823-18.521.276.276,0,0,0,.191-.136.282.282,0,0,0-.3-.419h0a13.911,13.911,0,0,0-11.252,19.255h0A.269.269,0,0,0,105.658,171.358Z" transform="translate(-104.428 -151.945)" fill="#b7b7b7" fill-rule="evenodd"/>
      </g>
      <g id="组_28" data-name="组 28" transform="translate(0.91)">
        <path id="路径_25" data-name="路径 25" d="M106.9,180.727l7.735-2.374a.061.061,0,0,0,.02-.006h0a.1.1,0,0,0,.036-.018.222.222,0,0,0-.088-.414v0l-1.106-.192h0a.171.171,0,0,1-.143-.163.173.173,0,0,1,.054-.126h0l4.6-5.3a1.57,1.57,0,0,1,.473-.423,1.55,1.55,0,0,1,1.346-.1l-1.766-5.121L106.382,179.94h0a.486.486,0,0,0-.072.578.48.48,0,0,0,.585.206Z" transform="translate(-106.248 -158.103)" fill="#b7b7b7" fill-rule="evenodd"/>
        <path id="路径_26" data-name="路径 26" d="M140.01,186.7l-5.922-5.512-.015-.014h0a.189.189,0,0,0-.033-.023.225.225,0,0,0-.307.083.233.233,0,0,0-.01.2h0l.385,1.055h0a.167.167,0,0,1-.072.2.169.169,0,0,1-.135.017h0l-6.894-1.335a1.541,1.541,0,0,1-1.361-1.313l-3.551,4.091,17.49,3.385h0a.486.486,0,0,0,.535-.227.48.48,0,0,0-.113-.611Z" transform="translate(-114.172 -164.894)" fill="#b7b7b7" fill-rule="evenodd"/>
        <path id="路径_27" data-name="路径 27" d="M127.689,158.009c0,.006,0,.014,0,.018v0h0a.144.144,0,0,0,0,.039.224.224,0,0,0,.4.132h0l.721-.86h0a.171.171,0,0,1,.213-.04.16.16,0,0,1,.081.109h0l2.292,6.637a1.553,1.553,0,0,1-.458,1.837l5.318,1.028-5.815-16.84h0a.477.477,0,0,0-.462-.349.466.466,0,0,0-.462.4Z" transform="translate(-116.965 -149.723)" fill="#b7b7b7" fill-rule="evenodd"/>
      </g>
    </g>
    <g id="组_30" data-name="组 30" transform="translate(139.063 156.65)">
      <path id="路径_28" data-name="路径 28" d="M185.927,168.968H178.5a.585.585,0,1,1,0-1.169H190.16v-4.222H178.5a4.807,4.807,0,0,0,0,9.614h7.423a.586.586,0,0,1,0,1.172H174.271v4.219h11.656a4.807,4.807,0,0,0,0-9.613Z" transform="translate(-173.698 -163.576)" fill="#b7b7b7" fill-rule="evenodd"/>
      <path id="路径_29" data-name="路径 29" d="M221.775,178.581h5.293l-7-15h-5.295l-7,15h5.3l1.054-2.513h6.6Zm-6.03-6.385,1.673-3.983,1.675,3.983Z" transform="translate(-190.732 -163.576)" fill="#b7b7b7" fill-rule="evenodd"/>
      <path id="路径_30" data-name="路径 30" d="M260.548,163.58v.005h-.087v8.9l-6.552-8.91h-5.141v15h4.4v-8.913l6.551,8.917,5.14,0v-15Z" transform="translate(-211.233 -163.578)" fill="#b7b7b7"/>
      <path id="路径_31" data-name="路径 31" d="M297.482,163.58l-4.445,6.044-4.443-6.044h-5.239l7.064,9.607v5.4h5.237v-5.4l7.064-9.607Z" transform="translate(-228.526 -163.578)" fill="#b7b7b7"/>
    </g>
  </g>
</svg>
